<?xml version="1.0" encoding="UTF-8"?>
<!-- Generated by Pixelmator Pro 3.5.7 -->
<svg width="64" height="64" viewBox="0 0 64 64" xmlns="http://www.w3.org/2000/svg">
    <g id="Group-copy">
        <path id="Path" fill="#ffffff" stroke="none" d="M 32.172688 13.140087 C 35.217136 13.140087 37.693996 10.663231 37.693996 7.618774 C 37.693996 4.574326 35.217136 2.097469 32.172688 2.097469 C 29.128235 2.097469 26.651377 4.574326 26.651377 7.618774 C 26.651377 10.663231 29.128235 13.140087 32.172688 13.140087 Z"/>
        <path id="path1" fill="#ffffff" stroke="none" d="M 23.429934 30.076958 L 40.837711 30.076958 C 41.97139 30.076958 42.890385 29.157959 42.890385 28.024284 L 42.890385 20.434151 C 42.890385 18.333035 41.540096 16.470055 39.543407 15.815907 L 39.534149 15.812889 L 36.613724 15.329277 C 36.365238 15.252834 36.099533 15.384399 36.010178 15.62965 L 32.696571 24.721443 C 32.505363 25.245972 31.763578 25.245972 31.572371 24.721443 L 28.258764 15.62965 C 28.186632 15.431553 27.999729 15.307529 27.79948 15.307529 C 27.75211 15.307529 27.703661 15.314632 27.655859 15.329277 L 24.734791 15.812244 C 22.721735 16.482975 21.376827 18.349182 21.376827 20.459347 L 21.376827 28.024284 C 21.377258 29.157959 22.296255 30.076958 23.429934 30.076958 Z"/>
        <path id="path2" fill="#ffffff" stroke="none" d="M 10.806626 44.968262 C 13.851078 44.968262 16.327936 42.491398 16.327936 39.446949 C 16.327936 36.402496 13.851078 33.92564 10.806626 33.92564 C 7.762176 33.92564 5.285316 36.402496 5.285316 39.446949 C 5.285316 42.491398 7.762176 44.968262 10.806626 44.968262 Z"/>
        <path id="path3" fill="#ffffff" stroke="none" d="M 18.166363 47.64386 L 18.157104 47.640846 L 15.236681 47.157234 C 14.988197 47.080795 14.722489 47.212353 14.633129 47.457607 L 11.319526 56.549404 C 11.128318 57.073929 10.386531 57.073929 10.195324 56.549404 L 6.881721 47.457607 C 6.809587 47.259514 6.622687 47.135483 6.422436 47.135483 C 6.375065 47.135483 6.326618 47.142593 6.278816 47.157234 L 3.357746 47.640202 C 1.344907 48.310932 -0 50.177135 -0 52.2873 L -0 59.852238 C -0 60.985916 0.918998 61.904915 2.052673 61.904915 L 19.460455 61.904915 C 20.59413 61.904915 21.513128 60.985916 21.513128 59.852238 L 21.513128 52.262108 C 21.513128 50.161201 20.163054 48.298012 18.166363 47.64386 Z"/>
        <path id="path4" fill="#ffffff" stroke="none" d="M 53.2444 44.968262 C 56.288849 44.968262 58.765717 42.491398 58.765717 39.446949 C 58.765717 36.402496 56.288849 33.92564 53.2444 33.92564 C 50.199951 33.92564 47.723095 36.402496 47.723095 39.446949 C 47.723095 42.491398 50.199738 44.968262 53.2444 44.968262 Z"/>
        <path id="path5" fill="#ffffff" stroke="none" d="M 60.65345 47.64386 L 60.644192 47.640846 L 57.723763 47.157234 C 57.475285 47.080795 57.209572 47.212353 57.120216 47.457607 L 53.80661 56.549404 C 53.615402 57.073929 52.873615 57.073929 52.682415 56.549404 L 49.368809 47.457607 C 49.296673 47.259514 49.109772 47.135483 48.909523 47.135483 C 48.862156 47.135483 48.813702 47.142593 48.765903 47.157234 L 45.844833 47.640202 C 43.831779 48.310932 42.486874 50.177135 42.486874 52.2873 L 42.486874 59.852238 C 42.486874 60.985916 43.405872 61.904915 44.539547 61.904915 L 61.947327 61.904915 C 63.081001 61.904915 64 60.985916 64 59.852238 L 64 52.262108 C 64.000427 50.161201 62.650143 48.298012 60.65345 47.64386 Z"/>
        <path id="path6" fill="#ffffff" stroke="none" d="M 33.993458 31.630726 L 30.349764 31.630726 L 30.349764 39.931427 L 21.772591 48.508598 C 22.549046 49.571434 22.995411 50.874783 22.995411 52.261894 L 22.995411 52.438889 L 32.171612 43.262474 L 40.994469 52.085541 C 41.038609 50.68013 41.538803 49.368168 42.376194 48.314163 L 33.993458 39.931427 L 33.993458 31.630726 Z"/>
        <path id="path7" fill="#ffffff" stroke="none" d="M 33.491112 15.300854 C 33.347488 15.144531 33.137764 15.06572 32.925457 15.06572 L 31.34219 15.06572 C 31.129879 15.06572 30.920155 15.144314 30.776537 15.300854 C 30.554321 15.542877 30.522024 15.892563 30.679853 16.166019 L 31.526073 17.441811 L 31.129879 20.78405 L 31.909994 22.859333 C 31.986004 23.067982 32.281212 23.067982 32.357437 22.859333 L 33.13755 20.78405 L 32.741356 17.441811 L 33.587574 16.166019 C 33.745407 15.892563 33.713326 15.542877 33.491112 15.300854 Z"/>
        <path id="path8" fill="#ffffff" stroke="none" d="M 12.113853 47.135483 C 11.970232 46.97916 11.760508 46.900352 11.548199 46.900352 L 9.964929 46.900352 C 9.752621 46.900352 9.542896 46.978943 9.399276 47.135483 C 9.177062 47.377506 9.144764 47.727192 9.302595 48.000652 L 10.148814 49.27644 L 9.752621 52.618469 L 10.532736 54.693752 C 10.608745 54.902397 10.903953 54.902397 10.979961 54.693752 L 11.760077 52.618469 L 11.363882 49.27644 L 12.210101 48.000652 C 12.368148 47.727406 12.336065 47.377724 12.113853 47.135483 Z"/>
        <path id="path9" fill="#ffffff" stroke="none" d="M 54.600937 47.135483 C 54.457317 46.97916 54.247597 46.900352 54.035286 46.900352 L 52.452019 46.900352 C 52.239708 46.900352 52.029984 46.978943 51.886364 47.135483 C 51.66415 47.377506 51.631851 47.727192 51.789684 48.000652 L 52.635899 49.27644 L 52.239708 52.618469 L 53.019817 54.693752 C 53.095837 54.902397 53.391037 54.902397 53.467049 54.693752 L 54.247166 52.618469 L 53.850967 49.27644 L 54.697189 48.000652 C 54.85545 47.727406 54.823151 47.377724 54.600937 47.135483 Z"/>
    </g>
</svg>
