<?xml version="1.0" encoding="UTF-8"?>
<!-- Generated by Pixelmator Pro 3.5.7 -->
<svg width="64" height="64" viewBox="0 0 64 64" xmlns="http://www.w3.org/2000/svg">
    <g id="Group-copy">
        <g id="Group">
            <g id="g1">
                <path id="Path" fill="#ffffff" stroke="none" d="M 28.261971 49.431183 C 25.844938 51.664757 22.501905 52.164993 19.536804 50.737301 C 18.464882 50.221077 17.560316 49.50832 16.852158 48.65461 L 12.814773 57.584541 C 12.631073 57.990814 12.836206 58.297058 12.932838 58.409798 C 13.029471 58.522411 13.300843 58.771748 13.730241 58.652344 L 16.669428 57.83424 C 17.004374 57.741116 17.342949 57.69619 17.676805 57.69619 C 19.085245 57.69619 20.41086 58.493351 21.049143 59.814362 L 22.376574 62.561371 C 22.570444 62.962799 22.93409 63.00288 23.085457 62.999851 C 23.233917 62.997917 23.599134 62.949718 23.782713 62.543453 L 30.204676 48.338676 C 29.499062 48.541748 28.830868 48.905392 28.261971 49.431183 Z"/>
            </g>
        </g>
        <g id="g2">
            <g id="g3">
                <path id="path1" fill="#ffffff" stroke="none" d="M 50.748951 57.584541 L 46.711563 48.65461 C 46.003407 49.508438 45.098835 50.221195 44.026917 50.737301 C 41.061695 52.164993 37.718784 51.664757 35.30175 49.431183 C 34.732853 48.905392 34.064659 48.541748 33.358803 48.338676 L 39.780766 62.543453 C 39.964462 62.949841 40.329685 62.997917 40.47802 62.999851 C 40.629387 63.00288 40.993038 62.962799 41.186905 62.561371 L 42.514332 59.814362 C 43.152496 58.493351 44.47823 57.69619 45.886673 57.69619 C 46.220528 57.69619 46.559231 57.741116 46.894051 57.83424 L 49.833237 58.652344 C 50.262634 58.77187 50.534126 58.522533 50.630638 58.409798 C 50.727516 58.296936 50.932648 57.990692 50.748951 57.584541 Z"/>
            </g>
        </g>
        <g id="g4">
            <g id="g5">
                <path id="path2" fill="#ffffff" stroke="none" d="M 53.920395 26.162182 C 50.56731 23.866245 49.526871 19.307674 51.551796 15.784206 C 52.768917 13.666161 52.135468 11.573174 51.136814 10.320705 C 50.138031 9.068596 48.238312 7.985413 45.902775 8.70047 C 42.017609 9.890457 37.804394 7.861897 36.312035 4.081833 C 35.414974 1.809635 33.383625 1 31.781921 1 C 30.180214 1 28.148869 1.809635 27.251806 4.081959 C 25.759449 7.862137 21.546597 9.890457 17.661064 8.700588 C 15.325287 7.985653 13.425933 9.068596 12.427031 10.320824 C 11.42837 11.573296 10.79493 13.666039 12.012042 15.784328 C 14.036971 19.307674 12.996535 23.866364 9.64345 26.162304 C 7.627725 27.542648 7.290479 29.703079 7.646736 31.264706 C 8.002994 32.826332 9.244447 34.626389 11.659418 34.995361 C 15.676579 35.609062 18.591789 39.264641 18.296444 43.317768 C 18.118677 45.754295 19.597593 47.365082 21.040668 48.060162 C 22.483862 48.755116 24.665245 48.907211 26.459368 47.249077 C 27.951485 45.870178 29.867065 45.180431 31.781797 45.180431 C 33.697258 45.180431 35.611752 45.86982 37.104111 47.249077 C 38.898476 48.907333 41.079979 48.755238 42.523052 48.060162 C 43.966129 47.365204 45.444923 45.754414 45.267281 43.317886 C 44.971935 39.264763 47.887138 35.609184 51.904301 34.995361 C 54.319275 34.626389 55.560486 32.82621 55.916985 31.264706 C 56.273369 29.702839 55.935875 27.542408 53.920395 26.162182 Z M 31.781921 41.678162 C 22.993546 41.678162 15.843689 34.528305 15.843689 25.739929 C 15.843689 16.95155 22.993425 9.801571 31.781921 9.801571 C 40.570415 9.801571 47.72015 16.951431 47.72015 25.739803 C 47.720032 34.528179 40.570297 41.678162 31.781921 41.678162 Z"/>
            </g>
        </g>
        <g id="g6">
            <g id="g7">
                <path id="path3" fill="#ffffff" stroke="none" d="M 31.781797 12.773335 C 24.631943 12.773335 18.815208 18.590195 18.815208 25.739929 C 18.815208 32.889664 24.631823 38.70652 31.781797 38.70652 C 38.931778 38.70652 44.748394 32.889664 44.748394 25.739929 C 44.748394 18.590195 38.931656 12.773335 31.781797 12.773335 Z M 38.426815 24.482731 L 30.35689 30.376968 C 30.100779 30.564056 29.793442 30.662991 29.480536 30.662991 C 29.399887 30.662991 29.318874 30.656452 29.238228 30.643131 C 28.844793 30.578102 28.493862 30.357594 28.264513 30.031124 L 25.850632 26.594242 C 25.378969 25.922535 25.541113 24.995808 26.212578 24.524147 C 26.884167 24.052486 27.810774 24.214508 28.282557 24.886097 L 29.826502 27.084431 L 36.674107 22.083019 C 37.336849 21.599251 38.266487 21.743591 38.750378 22.406464 C 39.23439 23.069084 39.089443 23.9986 38.426815 24.482731 Z"/>
            </g>
        </g>
    </g>
</svg>
